<svg width="29" height="27" viewBox="0 0 29 27" fill="none" xmlns="http://www.w3.org/2000/svg">
<g filter="url(#filter0_d_1138_5521)">
<path d="M19.0832 22.167V3.83366C19.0832 3.22587 18.8417 2.64298 18.412 2.21321C17.9822 1.78343 17.3993 1.54199 16.7915 1.54199H12.2082C11.6004 1.54199 11.0175 1.78343 10.5877 2.21321C10.1579 2.64298 9.9165 3.22587 9.9165 3.83366V22.167M5.33317 6.12533H23.6665C24.9322 6.12533 25.9582 7.15134 25.9582 8.41699V19.8753C25.9582 21.141 24.9322 22.167 23.6665 22.167H5.33317C4.06752 22.167 3.0415 21.141 3.0415 19.8753V8.41699C3.0415 7.15134 4.06752 6.12533 5.33317 6.12533Z" stroke="#C6E1FA" stroke-width="1.75" stroke-linecap="round" stroke-linejoin="round" shape-rendering="crispEdges"/>
</g>
<defs>
<filter id="filter0_d_1138_5521" x="-1.8335" y="0.666992" width="32.6665" height="30.375" filterUnits="userSpaceOnUse" color-interpolation-filters="sRGB">
<feFlood flood-opacity="0" result="BackgroundImageFix"/>
<feColorMatrix in="SourceAlpha" type="matrix" values="0 0 0 0 0 0 0 0 0 0 0 0 0 0 0 0 0 0 127 0" result="hardAlpha"/>
<feOffset dy="4"/>
<feGaussianBlur stdDeviation="2"/>
<feComposite in2="hardAlpha" operator="out"/>
<feColorMatrix type="matrix" values="0 0 0 0 0 0 0 0 0 0 0 0 0 0 0 0 0 0 0.25 0"/>
<feBlend mode="normal" in2="BackgroundImageFix" result="effect1_dropShadow_1138_5521"/>
<feBlend mode="normal" in="SourceGraphic" in2="effect1_dropShadow_1138_5521" result="shape"/>
</filter>
</defs>
</svg>
