<svg width="51" height="50" viewBox="0 0 51 50" fill="none" xmlns="http://www.w3.org/2000/svg">
<path d="M23.1084 30.7751L22.3105 32.698M23.1084 19.2251L22.3105 17.3022M27.8918 30.7751L28.6876 32.7001M28.6897 17.3022L27.8918 19.2251M31.2751 22.6084L33.198 21.8105M31.2751 27.3918L33.198 28.1897M37.1626 13.5418C37.642 12.7115 37.924 11.7822 37.9867 10.8255C38.0494 9.86887 37.8913 8.91062 37.5244 8.02489C37.1576 7.13916 36.5919 6.34969 35.8711 5.71757C35.1503 5.08544 34.2938 4.6276 33.3677 4.37947C32.4417 4.13134 31.471 4.09956 30.5307 4.2866C29.5905 4.47364 28.7058 4.87449 27.9452 5.45812C27.1847 6.04175 26.5686 6.79253 26.1446 7.65238C25.7206 8.51222 25.5001 9.45808 25.5001 10.4168C25.5014 9.02885 25.0406 7.67998 24.1904 6.58289C23.3403 5.48579 22.1492 4.70288 20.8049 4.35761C19.4606 4.01234 18.0396 4.12436 16.766 4.676C15.4924 5.22765 14.4387 6.18752 13.7709 7.40428C13.2213 8.40476 12.9561 9.53668 13.0043 10.6772M13.0043 10.6772C11.7796 10.9922 10.6426 11.5818 9.6796 12.4014C8.71655 13.2209 7.95265 14.2489 7.44576 15.4074C6.93887 16.5659 6.70228 17.8246 6.75393 19.0881C6.80558 20.3516 7.1441 21.5868 7.74385 22.7001M13.0043 10.6772C13.0467 11.6853 13.3327 12.6682 13.8376 13.5418M37.9959 10.6772C39.2206 10.9922 40.3576 11.5818 41.3206 12.4014C42.2837 13.2209 43.0476 14.2489 43.5544 15.4074C44.0613 16.5659 44.2979 17.8246 44.2463 19.0881C44.1946 20.3516 43.8561 21.5868 43.2564 22.7001M41.1355 21.4459C42.9255 22.1729 44.4073 23.4993 45.3274 25.1981C46.2475 26.8969 46.5487 28.8626 46.1796 30.759C45.8104 32.6554 44.7938 34.3646 43.3037 35.5943C41.8136 36.8239 39.9425 37.4976 38.0105 37.5001M8.9001 36.423C8.6493 38.3349 9.06931 40.2747 10.0885 41.9116C11.1078 43.5485 12.6631 44.7813 14.4895 45.3999C16.3159 46.0184 18.3003 45.9844 20.1045 45.3037C21.9086 44.623 23.4209 43.3376 24.3834 41.6668C24.7584 41.0189 26.2418 41.0189 26.6168 41.6668C27.5793 43.3373 29.0914 44.6224 30.8952 45.303C32.6991 45.9837 34.6832 46.0178 36.5094 45.3996C38.3356 44.7813 39.8909 43.549 40.9103 41.9126C41.9298 40.2761 42.3502 38.3368 42.1001 36.4251M9.8751 21.4397C8.08112 22.1641 6.59512 23.4902 5.67195 25.1905C4.74879 26.8908 4.44601 28.8593 4.81553 30.7584C5.18506 32.6575 6.20386 34.3689 7.69721 35.599C9.19055 36.829 11.0654 37.5012 13.0001 37.5001M19.7251 22.6084L17.8022 21.8105M19.7251 27.3918L17.8022 28.1897M31.7501 25.0001C31.7501 28.4519 28.9519 31.2501 25.5001 31.2501C22.0483 31.2501 19.2501 28.4519 19.2501 25.0001C19.2501 21.5483 22.0483 18.7501 25.5001 18.7501C28.9519 18.7501 31.7501 21.5483 31.7501 25.0001Z" stroke="#003B73" stroke-width="2" stroke-linecap="round" stroke-linejoin="round"/>
</svg>
