<svg width="51" height="50" viewBox="0 0 51 50" fill="none" xmlns="http://www.w3.org/2000/svg">
<path d="M32.7437 26.854L35.9 44.6165C35.9354 44.8257 35.906 45.0406 35.8159 45.2327C35.7258 45.4247 35.5792 45.5846 35.3957 45.6911C35.2122 45.7975 35.0006 45.8454 34.7892 45.8284C34.5777 45.8113 34.3765 45.7302 34.2125 45.5957L26.7542 39.9978C26.3941 39.7288 25.9567 39.5834 25.5073 39.5834C25.0579 39.5834 24.6205 39.7288 24.2604 39.9978L16.7896 45.5936C16.6257 45.7278 16.4247 45.8089 16.2135 45.826C16.0024 45.843 15.791 45.7953 15.6076 45.6891C15.4243 45.583 15.2777 45.4234 15.1873 45.2318C15.097 45.0401 15.0673 44.8255 15.1021 44.6165L18.2562 26.854M38 16.6665C38 23.5701 32.4036 29.1665 25.5 29.1665C18.5964 29.1665 13 23.5701 13 16.6665C13 9.76294 18.5964 4.1665 25.5 4.1665C32.4036 4.1665 38 9.76294 38 16.6665Z" stroke="#003B73" stroke-width="2" stroke-linecap="round" stroke-linejoin="round"/>
</svg>
