<svg width="50" height="50" viewBox="0 0 50 50" fill="none" xmlns="http://www.w3.org/2000/svg">
<path d="M22.3603 10.5748C27.2132 9.99651 32.122 11.0224 36.3371 13.4958C40.5523 15.9692 43.842 19.7542 45.7041 24.2728C45.8777 24.7405 45.8777 25.255 45.7041 25.7228C44.9384 27.579 43.9266 29.3238 42.6957 30.9103M29.3416 29.4957C28.1628 30.6342 26.5841 31.2641 24.9453 31.2499C23.3066 31.2356 21.739 30.5783 20.5802 29.4195C19.4214 28.2607 18.7641 26.6932 18.7499 25.0544C18.7356 23.4157 19.3656 21.8369 20.5041 20.6582M36.4145 36.4561C33.6509 38.0931 30.5675 39.1165 27.3736 39.4569C24.1796 39.7973 20.9498 39.4466 17.9033 38.4288C14.8568 37.4109 12.0649 35.7496 9.71702 33.5576C7.36914 31.3657 5.52023 28.6943 4.29575 25.7248C4.12212 25.2571 4.12212 24.7426 4.29575 24.2748C6.1429 19.7954 9.39298 16.0358 13.5582 13.5603M4.16658 4.1665L45.8332 45.8332" stroke="#003B73" stroke-width="2" stroke-linecap="round" stroke-linejoin="round"/>
</svg>
