<svg width="41" height="41" viewBox="0 0 41 41" fill="none" xmlns="http://www.w3.org/2000/svg">
<path d="M20.1667 8.83333C22.6667 6.33333 24.7333 5.5 27.6667 5.5C30.0978 5.5 32.4294 6.46577 34.1485 8.18485C35.8676 9.90394 36.8333 12.2355 36.8333 14.6667C36.8333 18.4833 34.3167 21.4 31.8333 23.8333L20.1667 35.5L8.5 23.8333C6 21.4167 3.5 18.5 3.5 14.6667C3.5 12.2355 4.46577 9.90394 6.18485 8.18485C7.90394 6.46577 10.2355 5.5 12.6667 5.5C15.6 5.5 17.6667 6.33333 20.1667 8.83333ZM20.1667 8.83333L15.2333 13.7667C14.8947 14.1028 14.6259 14.5027 14.4425 14.9432C14.2591 15.3837 14.1647 15.8562 14.1647 16.3333C14.1647 16.8105 14.2591 17.2829 14.4425 17.7235C14.6259 18.164 14.8947 18.5638 15.2333 18.9C16.6 20.2667 18.7833 20.3167 20.2333 19.0167L23.6833 15.85C24.5481 15.0653 25.674 14.6307 26.8417 14.6307C28.0094 14.6307 29.1352 15.0653 30 15.85L34.9333 20.2833M30.1667 25.5L26.8333 22.1667M25.1667 30.5L21.8333 27.1667" stroke="#003B73" stroke-width="2" stroke-linecap="round" stroke-linejoin="round"/>
</svg>
