<svg width="50" height="50" viewBox="0 0 50 50" fill="none" xmlns="http://www.w3.org/2000/svg">
<path d="M33.3332 22.9167L37.4998 27.0833L45.8332 18.75M33.3332 43.75V39.5833C33.3332 37.3732 32.4552 35.2536 30.8924 33.6908C29.3296 32.128 27.21 31.25 24.9998 31.25H12.4998C10.2897 31.25 8.17008 32.128 6.60728 33.6908C5.04448 35.2536 4.1665 37.3732 4.1665 39.5833V43.75M27.0832 14.5833C27.0832 19.1857 23.3522 22.9167 18.7498 22.9167C14.1475 22.9167 10.4165 19.1857 10.4165 14.5833C10.4165 9.98096 14.1475 6.25 18.7498 6.25C23.3522 6.25 27.0832 9.98096 27.0832 14.5833Z" stroke="#003B73" stroke-width="2" stroke-linecap="round" stroke-linejoin="round"/>
</svg>
