<svg width="51" height="50" viewBox="0 0 51 50" fill="none" xmlns="http://www.w3.org/2000/svg">
<path d="M42.1668 20.8332C42.1668 31.2353 30.6272 42.0686 26.7522 45.4144C26.3913 45.6859 25.9518 45.8327 25.5002 45.8327C25.0485 45.8327 24.6091 45.6859 24.2481 45.4144C20.3731 42.0686 8.8335 31.2353 8.8335 20.8332C8.8335 16.4129 10.5894 12.1737 13.715 9.04806C16.8407 5.92245 21.0799 4.1665 25.5002 4.1665C29.9204 4.1665 34.1597 5.92245 37.2853 9.04806C40.4109 12.1737 42.1668 16.4129 42.1668 20.8332Z" stroke="#003B73" stroke-width="2" stroke-linecap="round" stroke-linejoin="round"/>
<path d="M25.5002 27.0832C28.9519 27.0832 31.7502 24.285 31.7502 20.8332C31.7502 17.3814 28.9519 14.5832 25.5002 14.5832C22.0484 14.5832 19.2502 17.3814 19.2502 20.8332C19.2502 24.285 22.0484 27.0832 25.5002 27.0832Z" stroke="#003B73" stroke-width="2" stroke-linecap="round" stroke-linejoin="round"/>
</svg>
