<svg width="50" height="50" viewBox="0 0 50 50" fill="none" xmlns="http://www.w3.org/2000/svg">
<path d="M20.8335 24.9998V20.8332C20.8335 19.7281 21.2725 18.6683 22.0539 17.8869C22.8353 17.1055 23.8951 16.6665 25.0002 16.6665C26.1052 16.6665 27.165 17.1055 27.9464 17.8869C28.7278 18.6683 29.1668 19.7281 29.1668 20.8332V24.9998M31.2502 4.1665H12.5002C11.3951 4.1665 10.3353 4.60549 9.55388 5.38689C8.77248 6.16829 8.3335 7.2281 8.3335 8.33317V41.6665C8.3335 42.7716 8.77248 43.8314 9.55388 44.6128C10.3353 45.3942 11.3951 45.8332 12.5002 45.8332H37.5002C38.6052 45.8332 39.665 45.3942 40.4464 44.6128C41.2278 43.8314 41.6668 42.7716 41.6668 41.6665V14.5832L31.2502 4.1665ZM18.7502 24.9998H31.2502C32.4008 24.9998 33.3335 25.9326 33.3335 27.0832V35.4165C33.3335 36.5671 32.4008 37.4998 31.2502 37.4998H18.7502C17.5996 37.4998 16.6668 36.5671 16.6668 35.4165V27.0832C16.6668 25.9326 17.5996 24.9998 18.7502 24.9998Z" stroke="#003B73" stroke-width="2" stroke-linecap="round" stroke-linejoin="round"/>
</svg>
