<svg width="80" height="81" viewBox="0 0 80 81" fill="none" xmlns="http://www.w3.org/2000/svg">
<path d="M34.2267 70.4998C34.8118 71.5132 35.6534 72.3547 36.6668 72.9398C37.6802 73.5249 38.8298 73.8329 40 73.8329C41.1702 73.8329 42.3198 73.5249 43.3332 72.9398C44.3466 72.3547 45.1882 71.5132 45.7733 70.4998M10.8733 51.5865C10.4379 52.0638 10.1505 52.6573 10.0462 53.2949C9.94186 53.9325 10.0251 54.5867 10.2857 55.1778C10.5463 55.769 10.9731 56.2717 11.5142 56.6248C12.0553 56.9778 12.6873 57.166 13.3333 57.1665H66.6667C67.3127 57.1667 67.9448 56.9793 68.4862 56.6269C69.0276 56.2745 69.455 55.7723 69.7163 55.1816C69.9776 54.5908 70.0616 53.9368 69.9581 53.2991C69.8546 52.6615 69.5681 52.0676 69.1333 51.5898C64.7 47.0198 60 42.1632 60 27.1665C60 21.8622 57.8929 16.7751 54.1421 13.0244C50.3914 9.27364 45.3043 7.1665 40 7.1665C34.6957 7.1665 29.6086 9.27364 25.8579 13.0244C22.1071 16.7751 20 21.8622 20 27.1665C20 42.1632 15.2967 47.0198 10.8733 51.5865Z" stroke="#709AC2" stroke-width="2" stroke-linecap="round" stroke-linejoin="round"/>
</svg>
