<svg width="18" height="18" viewBox="0 0 18 18" fill="none" xmlns="http://www.w3.org/2000/svg">
<path d="M7.725 11.25H5.25C4.45435 11.25 3.69129 11.5661 3.12868 12.1287C2.56607 12.6913 2.25 13.4544 2.25 14.25V15.75M15.75 15.75L14.325 14.325M10.5 5.25C10.5 6.90685 9.15685 8.25 7.5 8.25C5.84315 8.25 4.5 6.90685 4.5 5.25C4.5 3.59315 5.84315 2.25 7.5 2.25C9.15685 2.25 10.5 3.59315 10.5 5.25ZM15 12.75C15 13.9926 13.9926 15 12.75 15C11.5074 15 10.5 13.9926 10.5 12.75C10.5 11.5074 11.5074 10.5 12.75 10.5C13.9926 10.5 15 11.5074 15 12.75Z" stroke="#125BA1" stroke-linecap="round" stroke-linejoin="round"/>
</svg>
