<svg width="51" height="50" viewBox="0 0 51 50" fill="none" xmlns="http://www.w3.org/2000/svg">
<path d="M33.8332 43.75V39.5833C33.8332 37.3732 32.9552 35.2536 31.3924 33.6908C29.8296 32.128 27.71 31.25 25.4998 31.25H12.9998C10.7897 31.25 8.67008 32.128 7.10728 33.6908C5.54448 35.2536 4.6665 37.3732 4.6665 39.5833V43.75M33.8332 6.51667C35.6202 6.97994 37.2027 8.02347 38.3325 9.48346C39.4623 10.9435 40.0753 12.7373 40.0753 14.5833C40.0753 16.4294 39.4623 18.2232 38.3325 19.6832C37.2027 21.1432 35.6202 22.1867 33.8332 22.65M46.3332 43.75V39.5833C46.3318 37.7369 45.7172 35.9433 44.586 34.484C43.4548 33.0247 41.8709 31.9824 40.0832 31.5208M27.5832 14.5833C27.5832 19.1857 23.8522 22.9167 19.2498 22.9167C14.6475 22.9167 10.9165 19.1857 10.9165 14.5833C10.9165 9.98096 14.6475 6.25 19.2498 6.25C23.8522 6.25 27.5832 9.98096 27.5832 14.5833Z" stroke="#003B73" stroke-width="2" stroke-linecap="round" stroke-linejoin="round"/>
</svg>
