<svg width="50" height="50" viewBox="0 0 50 50" fill="none" xmlns="http://www.w3.org/2000/svg">
<path d="M18.7502 24.9998L22.9168 29.1665L31.2502 20.8331M41.6668 27.0831C41.6668 37.4998 34.3752 42.7081 25.7085 45.729C25.2547 45.8828 24.7617 45.8754 24.3127 45.7081C15.6252 42.7081 8.3335 37.4998 8.3335 27.0831V12.4998C8.3335 11.9473 8.55299 11.4174 8.94369 11.0267C9.33439 10.636 9.86429 10.4165 10.4168 10.4165C14.5835 10.4165 19.7918 7.91646 23.4168 4.7498C23.8582 4.37271 24.4196 4.16553 25.0002 4.16553C25.5807 4.16553 26.1421 4.37271 26.5835 4.7498C30.2293 7.9373 35.4168 10.4165 39.5835 10.4165C40.136 10.4165 40.6659 10.636 41.0566 11.0267C41.4473 11.4174 41.6668 11.9473 41.6668 12.4998V27.0831Z" stroke="#003B73" stroke-width="2" stroke-linecap="round" stroke-linejoin="round"/>
</svg>
