<svg width="51" height="50" viewBox="0 0 51 50" fill="none" xmlns="http://www.w3.org/2000/svg">
<path d="M46.3332 24.9998C46.3332 36.5058 37.0058 45.8332 25.4998 45.8332M46.3332 24.9998C46.3332 13.4939 37.0058 4.1665 25.4998 4.1665M46.3332 24.9998H4.6665M25.4998 45.8332C13.9939 45.8332 4.6665 36.5058 4.6665 24.9998M25.4998 45.8332C20.1503 40.2162 17.1665 32.7566 17.1665 24.9998C17.1665 17.243 20.1503 9.78349 25.4998 4.1665M25.4998 45.8332C30.8494 40.2162 33.8332 32.7566 33.8332 24.9998C33.8332 17.243 30.8494 9.78349 25.4998 4.1665M4.6665 24.9998C4.6665 13.4939 13.9939 4.1665 25.4998 4.1665" stroke="#003B73" stroke-width="2" stroke-linecap="round" stroke-linejoin="round"/>
</svg>
